/* XPM */
static char *_8e8c4e73321418ef64a49a9b3c24fc6LZVCuHKfH5tS0Q8B[] = {
/* columns rows colors chars-per-pixel */
"64 64 158 2 ",
"   c #80858F",
".  c #868B96",
"X  c #7E838D",
"o  c #828892",
"O  c #8C929D",
"+  c #828791",
"@  c #747881",
"#  c #787C86",
"$  c #8E949F",
"%  c #9096A1",
"&  c #8B919C",
"*  c #8A8F9A",
"=  c #898F9A",
"-  c #898E99",
";  c #858B95",
":  c #868C97",
">  c #8D939E",
",  c #7D828C",
"<  c #9197A3",
"1  c #949BA6",
"2  c #848994",
"3  c #939AA5",
"4  c #989EAA",
"5  c #777C86",
"6  c #7E848D",
"7  c #7A7F89",
"8  c #797E87",
"9  c #72777F",
"0  c #8A909B",
"q  c #6D727A",
"w  c #686C75",
"e  c #858A95",
"r  c #878D97",
"t  c #727780",
"y  c #828792",
"u  c #848993",
"i  c #8E94A0",
"p  c #8F94A0",
"a  c #838993",
"s  c #7F848E",
"d  c #8F95A0",
"f  c #888E98",
"g  c #9298A4",
"h  c #9AA1AD",
"j  c #989FAB",
"k  c #99A0AC",
"l  c #9399A5",
"z  c #959BA7",
"x  c #72767F",
"c  c #71757E",
"v  c #71767F",
"b  c #787D86",
"n  c #757A83",
"m  c #818791",
"M  c #848A94",
"N  c #898F99",
"B  c #818690",
"V  c #787D87",
"C  c #969CA7",
"Z  c #8E939F",
"A  c #9096A2",
"S  c #8D929D",
"D  c #9EA4B1",
"F  c #9BA2AE",
"G  c #969CA8",
"H  c #797E88",
"J  c #8A909A",
"K  c #878C97",
"L  c #7B8089",
"P  c #7C818B",
"I  c #949AA6",
"U  c #8C919C",
"Y  c #949AA5",
"T  c #8B919B",
"R  c #838893",
"E  c #878D98",
"W  c #9298A3",
"Q  c #9197A2",
"!  c #6F747C",
"~  c #747982",
"^  c #8B909B",
"/  c #818691",
"(  c #737780",
")  c #969DA9",
"_  c #969DA8",
"`  c #9299A4",
"'  c #868C96",
"]  c #959CA7",
"[  c #767B85",
"{  c #979DA9",
"}  c #999FAB",
"|  c #838892",
" . c #6E737C",
".. c #8F95A1",
"X. c #9399A4",
"o. c #7B808A",
"O. c #7C828B",
"+. c #777D86",
"@. c #888D98",
"#. c #7E848E",
"$. c #888E99",
"%. c #858B96",
"&. c #777C85",
"*. c #808690",
"=. c #6F737C",
"-. c #858A94",
";. c #8D939F",
":. c #9095A1",
">. c #9BA1AD",
",. c #6B6F78",
"<. c #9CA2AE",
"1. c #9DA3B0",
"2. c #6D717A",
"3. c #9AA0AC",
"4. c #6F747D",
"5. c #757983",
"6. c #60646C",
"7. c #959BA6",
"8. c #7F858F",
"9. c #63686F",
"0. c #9FA6B2",
"q. c #9FA5B2",
"w. c #A2A8B5",
"e. c #9EA4B0",
"r. c #9DA4B0",
"t. c #70757E",
"y. c #6E727B",
"u. c #9BA1AE",
"i. c #9DA3AF",
"p. c #808590",
"a. c #9CA3AF",
"s. c #8E939E",
"d. c #7B818A",
"f. c #747983",
"g. c #71767E",
"h. c #8D929E",
"j. c #979EA9",
"k. c #7D838D",
"l. c #686C74",
"z. c #767B84",
"x. c #7A7F88",
"c. c #676C74",
"v. c #7A8089",
"b. c #8C929C",
"n. c #7D838C",
"m. c #7F858E",
"M. c #666A72",
"N. c #7F848F",
"B. c #6A6F77",
"V. c #777B85",
"C. c #6C7179",
"Z. c #757A84",
"A. c #737881",
"S. c #7C818A",
"D. c #979EAA",
"F. c #737781",
"G. c #636870",
"H. c white",
/* pixels */
"  . X o O + @ # $ % & . * = - ; - : *   > , < 1 $ 2 & 3 > 4 % O O % 4 > 3 & 2 $ 1 < , >   * : - ; - = * . & % $ 5 @ + O o 6 .   ",
"7 8 9 + 0 X q w e r t y 8 u i > p o a s d a f p s 0 g h j k l z z l k j h g 0 s d f a d s a o p > i a 8 y t r e w q X 0 + x 8 7 ",
"c v   b n 5 e m M N B V 7 . $ C Z 8 f e A S X e 1 A A D F G & G G & G F D A A 1 e X S A e f H $ C $ . 7 V B N M m e 5 n b   v c ",
"u J K , L P d I N s   b X . U Y J f Z T O R E W Y = Q % G $ W O O W $ G % Q = 3 W E R O T Z f J Y U . X b   s N I d P L , K J u ",
"& % V ! ~ > Q g ;   d & B 0 e & R H ^ > a / I Y g   7 ( R ) W m m W _ R ( 7   g Y I / a > 0 H R & e 0 B & d   ; ` Q > ~ ! V % & ",
"' ] V n P E 2 1 Q W W > & > $ d s [ - > N . { } l T | n  ...A X.X.A .. .n o T l } { . N > - [ s d $ > & > W W Q 1 2 E P n V ] ' ",
"; o.! O.. +  .+.e - - @.= X.z a , #.; % 0 X.I $ $.^ % ' E @.A k k A @.E ' % T $.$ I X.0 % ; 6 , a z X.= @.- - e +. .+ %.O.! o.; ",
"& &.8 * . M K   u Q *.#.2 ^   =.B L M % > g z E - e > o N , 0 z z 0 , N o > -.- E z g ;.% M L B =.  ^ 2 #.*.Q u   K M . * 8 &.& ",
"l =   = f J g A 0 < 2 M E   m e O ' d $ ; I $ Z l O - H e u M :...M 2 e H - O l Z $ I ; $ d ' O e m   E M 2 < 0 A g 0 f =   = l ",
"X $.r K $ 0 ] S e Y & $ r ' r ' @.Y >.} & ; ,.v d :   , $ d & ; ; & d $ ,   : d v ,.; & } >.Y @.' r ' r $ & Y e S ] 0 $ K r $.X ",
"@ a P > Q $.2 M K O & 0 d <.d n M z < 1.g < a b . ,   P Q d A 2 2 A p Q P   , . b a < g 1.< z M n d <.d 0 & O K M 2 $.Q > P a @ ",
"2.s o I < E , u B W - L ` ] * A Y g U 3.Z d * e . P 6 M > % Q N N Q % > M 6 P . e J d Z 3.U g Y A * ] ` L - W B u , E < I o s 2.",
"o.s ' l I I g > 2 | : r W Q   { Y O <.{ B K o 4.m O $.R @.W e #.#.e W @.R $.O m 4.o K *.{ <.O Y {   Q W r : | 2 > g I I l ' s o.",
". 5.6.q O l 7.% q t o.d j o y l h X.Q % a . L t s > M K ' f W R R W f ' K M > s t L . a % Q X.h l y o j d o.t q % 7.l O q 6.5.. ",
"=.8.,.9., l % , v H s { 0.a U >.} { S & e g d R & O ; & U Q , e -., Q U & ; O & R d g e & S { } >.U a q.{ s H v , A l , 9.,.8.=.",
"f : r r y ^ 0 4.*.f G % } l 1 w.d = e.r.U R ; % G X.- > -.z $.X X $.z M > - ` G % ; | U r.e.= d w.1 l } % G @.*.4.0 ^ y r r : f ",
"a X g I U o.t.y.K < > #.g u.i.D h O > ] l = , @.% z . $.S W W p.p.W W S $.. z % @., = l ] > O h D a.u.g #.> < K y.t.o.U I g X a ",
"b ( % & s.$ X 8 E ..m d.& l h A 1.< f.g.v ^ A W O 6 h.@.& ] 1 j.j.1 ] & @.h.6 O W A T v g.~ < 1.% h l & d.m ..E 8 X $ > & % ( b ",
"[ , % d K s = a ' h.> d % d 4 - Z k < 0 a d A d Q t X ' X 0 1 d d 1 0 X ' X ( Q ..A d a 0 < k s.- 4 d % d > h.' a = s K d % , [ ",
"$.B s > o.t $ | k.*.Q { G { 1 & s 2 :.k % Q K @.g n l.E @.h.> - - > > E E l.n g @.K Q % k ..u s & 1 ) G { Q *.k.| $ t o.> s B $.",
"% $ 5 v z.z.8.= 6 , B I - 2 & M $.  = s & Q K B E e e M 0 % ..g g ..% 0 M e e E B K Q & s =   $.M & 2 N I B , #.= 8.z.z.v 5 $ % ",
"a T : X #.x.x.y & + x.O > @.I 0 > . @.s $ g $ & M - N B c.o G g g G o c.B N - M & $ g $ s @.. > 0 I @.> O x.+ & o x.x.#.X : & a ",
"t . * u ' a f H E _ A d $ h r.X.E % W E g O v.g Y > A &   ; f , , f ;   & A > Y W v.O g E W % E X.r.h $ d % _ @.H f a ' u = . t ",
"z.| > b.> E * ' s n.< X.I G X.m.o W = X & / M.X & W W G d ^ O @.@.O ^ d G W W & X M./ & X N W o N.X.G I X.< n.s ' * E > U h.| z.",
"y.v.@.+ = Q - = ' B.o Q } g f   Y { E   0 S a s a 8.A Q W E K U U K E W Q A 8.a s a S 0   E { Y   f ` } Q o B.' = - Q = + @.v.y.",
"~ H m P   Q O N 0 L z.: { { M X z 4 Y 0 d . 1 ] d [ e m M o e J J e o 2 m e V.d z 1 . d 0 Y 4 z k.M { { : z.L 0 N O Q   P m H ~ ",
"C.8./ k., & I ' ; 0 R W Y $ Y @.^ d G > 0 ; = ^ = 2 O.8 X Z.m J J m Z.X 8 O.2 = ^ = ; 0 > G d ^ @.Y $ Y W R 0 ; ' I & , k.m 8.C.",
"B.d.b P | ' Y W Q z B ( x O $ ; O & Y } O - $ o.s d = + K . -.> > e . K y = d s o.$ - O } Y & O ; $ O x A.B z Q W Y ' o P b d.B.",
"O.v M.P O N 7 $.z 4 z X o.| *.Q @.b L $ W h.^   s * Q % $.M $.= = $.M $.% Q J s   ^ h.W $ L b @.Q *.| o.X z 4 7.$.7 N O P M.v O.",
"m u S.H . % 8 z.= Y Y G } p e ' a ^ >   $.g % $ ' f W G M = O 2 2 U = M G W f ' $ % g $.  > ^ a ' e p } G Y Y = z.8 % . H S.u m ",
"O R ' B @.Q l + A.0 > $ d o.; ' = X.X.a U U : = O r + P y 2 x.7 7 x.2 y P + r O = K U U a X.X.= ' ; o.d $ > 0 A.+ l Q @.B ' R O ",
"$.& & d o.#.{ l 2 n [ -.K R m & { D.z 8.V ' P H m | ' n u T / d.d./ ^ u n ' | m H P ' V 8.z D.{ & m R K -.[ n 2 l { #.o.d & & $.",
"$.& & d o.#.{ l 2 n [ -.K R m & { D.z 8.V ' P H m | ' n u T / d.d./ ^ u n ' | m H P ' V 8.z D.{ & m a K -.[ n 2 l { #.o.d & & $.",
"O R ' B @.Q l + A.0 > $ d o.; ' = X.X.a U U : = O r + P y 2 x.7 7 x.2 y P + r O = : U U a l X.= ' ; o.d $ > 0 A.+ l Q @.B ' R O ",
"m u S.H . % 8 z.= Y Y G } p e ' a ^ >   $.g % $ ' f W G M = O 2 2 U = M G W f ' $ % g $.  > ^ a ' e p } G Y Y = z.8 % . H S.u m ",
"O.v M.P O N 7 $.z 4 z X o.| *.Q @.b o.$ W h.^   s * Q % $.M $.* = $.M $.% Q J s   ^ h.W $ L b @.Q *.| o.X z 4 7.$.7 N O P M.v O.",
"B.d.b P | ' Y W Q z B ( x O $ ; O & Y } O - $ o.s d = + K . -.> > -.. K y = d s o.$ - O } Y & O ; $ O x F.B z Q W Y ' | P b d.B.",
"C.8./ k., & I ' ; 0 R W Y $ Y @.^ d G > 0 ; = ^ = 2 O.8 X Z.m J J m Z.X 8 O.2 = ^ = ; 0 > G d ^ @.Y $ Y W R 0 ; ' I & , k.m 8.C.",
"~ H m P   Q O N 0 L z.: { { M X z 4 Y 0 d . 1 ] d [ e m M o e J J e o 2 m e V.d z 1 . d 0 Y 4 z k.M { { : z.L 0 N O Q   P m H ~ ",
"y.v.@.+ = Q - = ' B.o Q } g f   Y { E   0 S a s a 8.A Q W E K U U K E W Q A 8.a s a S 0   E { 3   f ` } Q o B.' = - Q = + @.v.y.",
"z.| > b.> E * ' s n.< X.I G X.m.o W = X & / M.X & W W G d ^ O @.@.O ^ d G W W & X M./ & X = W o N.X.G I X.< n.s ' * E > U > | z.",
"t . * u ' a f H @._ A d $ h r.X.E % W E g O v.g Y > A &   ; f , , f ;   & A > Y W v.O g E W % E X.r.h $ d % _ E H f a ' u * . t ",
"a T : X #.x.x.o & + x.O > @.I 0 > . @.s $ g $ & M - N / c.o G g g G o c.B N - M & $ g $ s @.. > 0 I @.> O x.+ & o x.x.#.X : T a ",
"% $ 5 v z.z.8.= 6 , B I N 2 & M $.  = s & Q K B E e e M 0 % ..g g ..% 0 M e e E B K Q & s =   $.M & 2 N I B , #.= 8.z.z.v 5 $ % ",
"$.B s > o.t $ | k.*.Q { G { 1 & s u :.k % Q K @.g n l.E @.h.> - - > > @.E l.n g @.K Q % k ..u s & 1 ) G { Q *.k.| $ t o.> s B $.",
"[ , % d K s = a ' h.> d % d 4 - Z k < 0 a d A d Q t X ' X 0 1 d d 1 0 X ' X ( Q ..A d a 0 < k s.- 4 d % d > h.' a = s K d % , z.",
"b ( % & s.$ X 8 E ..m d.& l h A 1.< f.g.v ^ A W O 6 h.@.& ] 1 j.j.1 ] & @.h.6 O W A T v g.~ < 1.% h l & d.m ..E 8 X $ s.& % ( b ",
"a X g I U o.t.y.K < > s g u.i.D h O > ] l = , @.% z . $.S W W p.p.W W S $.. z % @., = l ] > O h D a.u.g #.> < K y.t.o.U I g X a ",
"f : r r y ^ 0 4.*.f G % } l 1 w.d = e.r.U R ; % G X.- > -.z $.X X $.z M > - ` G % ; | U r.e.= d w.1 l } % G @.*.4.0 ^ y r r : f ",
"=.8.,.9., l % , v H s { 0.a U >.} j.S & e g d R & O ; & U Q , e -., Q U & ; O & R d g e & S { } >.U a q.{ s H v , A l , G.,.8.=.",
". 5.6.q O l 7.% q t o.d j o y l h X.Q % a . L t s > M K ' f W R R W f ' K M > s t L . a % Q X.h l y o j d o.t q % 7.l O q 6.5.. ",
"o.s ' l I I g > 2 | : r W Q   { Y O <.{ B K o 4.m O $.R @.W e #.#.e W @.R $.O m 4.o K B { <.O Y {   Q W r : | 2 > g I I l ' s o.",
"2.s o I < E , u B W - L ` ] * A Y g U 3.Z d J e . P 6 M > % Q N N Q % > M 6 P . e J d Z 3.U g Y A * ] ` L - W B u , E < I o s 2.",
"@ a P > Q $.2 M K O & 0 d <.d n M z < 1.g < a b . ,   P Q d A 2 2 A p Q P   , . b a < g 1.< z M n d <.d 0 & O K M 2 $.Q > P a A.",
"X $.r K $ 0 ] S e Y & $ r ' r ' @.Y >.} & ; ,.v d :   , $ d & ; ; & d $ ,   : d v ,.; & } >.Y @.' r ' r $ & Y e S ] 0 $ K r $.X ",
"l =   = f J g A 0 < 2 M E   m e O ' d $ ; I $ Z l O - H e u M :...M 2 e H - O l Z $ I ; $ d ' O e m   E M 2 < 0 A g 0 f =   = l ",
"& &.8 * . M K   u Q *.#.2 ^   =.B L M % > g z E - e > o N , 0 z z 0 , N o > e - E z g ;.% M L B =.  ^ 2 #.*.Q u   K M . * 8 &.& ",
"; o.! O.. +  .+.e - - @.= X.z a , #.; % 0 X.I $ $.^ % ' E @.A k k A @.E ' % T $.$ I X.0 % ; 6 , a z X.= @.- - e +. .+ %.O.! o.; ",
"' ] V n P E 2 1 Q W W > & > $ d s [ - > N . { } l T | n  ...A X.X.A .. .n o T l } { . N h.- [ s d $ > & > W W Q 1 2 E P n V ] ' ",
"& % V ! ~ > Q g ;   d & B 0 e & R H ^ > a / I Y g   7 ( R ) W m m W ) R ( 7   g Y I / a > 0 H R & e 0 B & d   ; ` Q > ~ ! V % & ",
"u J K , L P d I N s   b X . U Y J f Z T O R E W Y = Q % G $ W O O W $ G % Q = 3 W E R O T Z f * Y U . X b   s N I d P L , K J u ",
"c v   b n 5 e m M N B V 7 . $ C Z 8 $.e A S X e 1 A A D F G & G G & G F D A A 1 e X S A e $.H $ C $ . 7 V B N M m e 5 n b   v c ",
"7 8 9 + 0 X q w e r t o 8 u i > p o a s d a f p s 0 g h j k l z z l k j h g 0 s d f a d s a o p > i u 8 y t r e w q X 0 + x 8 7 ",
"  . X o O + @ # $ % & . * = - ; - : *   > , < 1 $ 2 & 3 > 4 % O O % 4 > 3 & 2 $ 1 < , >   * : - ; - = * . & % $ 5 @ + O o 6 .   "
};
